<svg xmlns="http://www.w3.org/2000/svg" viewBox="0 0 54.14 41.31"><defs><style>.cls-1{fill:#023059;opacity:0.21;}.cls-2{fill:#61788c;}</style></defs><g id="Layer_2" data-name="Layer 2"><g id="Layer_2-2" data-name="Layer 2"><polygon points="5.9 5.14 5.9 23.73 5.97 23.73 5.97 28.74 5.9 28.74 5.9 41.31 0 41.31 0 0 5.97 0 5.97 5.14 5.9 5.14"/><path d="M24,27.44l0,0-5.69,1.22-.05-.07c-.85.06-1.77.12-2.68.12H12.93v-5h2.45c7.79,0,11.87-3.42,11.87-9.32S24.44,5.14,16.64,5.14h.09L15,0h.52C26.64,0,33.34,5.43,33.34,14.4,33.34,20.78,29.93,25.38,24,27.44Z"/><polygon points="33.84 40.96 27.41 40.96 18.55 28.34 24.06 27.12 33.84 40.96"/><circle class="cls-1" cx="39.17" cy="37.25" r="4.01"/><path class="cls-2" d="M52.31,37.38c0,1.76-1.09,3.22-2.41,3.22s-2.42-1.46-2.42-3.22v-.49c0-.42-.13-.68-.33-.68H45.57V36h6.74Zm-.2-1.17H47.52a1.52,1.52,0,0,1,.14.67v.49c0,1.64,1.06,3,2.24,3s2.21-1.34,2.21-3Z"/><path class="cls-2" d="M49.84,33.87a2.59,2.59,0,0,1-2.44-2.7c0-1.26.51-2,1.12-2s1.22.9,1.22,2.26v1.63c0,.36.2.53.37.53a2.37,2.37,0,0,0,2-2.45,2.47,2.47,0,0,0-.64-1.83l.11-.19a2.79,2.79,0,0,1,.71,2A2.57,2.57,0,0,1,49.84,33.87Zm-.1-.24a1,1,0,0,1-.19-.63V31.44c0-1.11-.39-2-1-2-.48,0-.94.6-.94,1.72A2.44,2.44,0,0,0,49.74,33.63Z"/><path class="cls-2" d="M51.62,27.41l-.1-.19a2.52,2.52,0,0,0,.64-2c0-1.13-.45-1.93-1.18-1.93s-.91,1-1.09,1.93c-.23,1.25-.52,2.13-1.29,2.13s-1.2-.69-1.2-1.94a2.63,2.63,0,0,1,.72-1.94l.09.15a2.5,2.5,0,0,0-.66,1.85c0,.95.4,1.67,1,1.67s.93-1,1.11-1.94c.23-1.23.5-2.1,1.26-2.1s1.35.77,1.35,2.12A2.8,2.8,0,0,1,51.62,27.41Z"/><path class="cls-2" d="M45.61,20.67c0-.2.11-.35.26-.35s.26.15.26.35-.1.35-.26.35S45.61,20.88,45.61,20.67Zm1.79.12v-.24h4.91v.24Z"/><path class="cls-2" d="M47.4,13.52h5.35c.75,0,1.39,1,1.39,2.18a2.65,2.65,0,0,1-.71,1.92l-.11-.19A2.36,2.36,0,0,0,54,15.71c0-1-.54-1.94-1.23-1.94H52.6c-.25,0-.4.26-.4.68v.48c0,1.75-1.09,3.2-2.4,3.2s-2.4-1.45-2.4-3.2Zm4.78.25H47.59v1.16c0,1.63,1,3,2.23,3s2.22-1.34,2.22-3v-.49A1.57,1.57,0,0,1,52.18,13.77Z"/><path class="cls-2" d="M52.31,6.91H49.24a1.87,1.87,0,0,0-1.66,2,1.88,1.88,0,0,0,1.66,2h3.07v.24H49.24A2.11,2.11,0,0,1,47.4,8.94a2.1,2.1,0,0,1,1.84-2.27h3.07Z"/><path class="cls-2" d="M51.62,4.44l-.1-.2a2.51,2.51,0,0,0,.64-2c0-1.14-.45-1.93-1.18-1.93s-.91,1-1.09,1.93c-.23,1.25-.52,2.13-1.29,2.13s-1.2-.69-1.2-1.94A2.61,2.61,0,0,1,48.12.46l.09.15a2.49,2.49,0,0,0-.66,1.85c0,1,.4,1.67,1,1.67s.93-1,1.11-1.95C49.93,1,50.2.09,51,.09s1.35.77,1.35,2.12A2.82,2.82,0,0,1,51.62,4.44Z"/></g></g></svg>